<svg xmlns="http://www.w3.org/2000/svg" width="440" height="60"><style>text { font-family: monospace; font-size: 24px; fill: #4a4a4a; }</style><text x="20" y="38.0" transform="rotate(71, 20, 38.0)">K</text><text x="40" y="38.0" transform="rotate(65, 40, 38.0)">o</text><text x="60" y="38.0" transform="rotate(89, 60, 38.0)">r</text><text x="80" y="38.0" transform="rotate(-33, 80, 38.0)">o</text><text x="100" y="38.0" transform="rotate(69, 100, 38.0)">v</text><text x="120" y="38.0" transform="rotate(63, 120, 38.0)">a</text><text x="140" y="38.0" transform="rotate(6, 140, 38.0)">i</text><text x="160" y="38.0" transform="rotate(70, 160, 38.0)">k</text><text x="180" y="38.0" transform="rotate(-8, 180, 38.0)">o</text><text x="200" y="38.0" transform="rotate(63, 200, 38.0)">N</text><text x="220" y="38.0" transform="rotate(3, 220, 38.0)">@</text><text x="240" y="38.0" transform="rotate(-34, 240, 38.0)">g</text><text x="260" y="38.0" transform="rotate(25, 260, 38.0)">m</text><text x="280" y="38.0" transform="rotate(-15, 280, 38.0)">a</text><text x="300" y="38.0" transform="rotate(-40, 300, 38.0)">i</text><text x="320" y="38.0" transform="rotate(12, 320, 38.0)">l</text><text x="340" y="38.0" transform="rotate(-71, 340, 38.0)">.</text><text x="360" y="38.0" transform="rotate(-7, 360, 38.0)">c</text><text x="380" y="38.0" transform="rotate(-14, 380, 38.0)">o</text><text x="400" y="38.0" transform="rotate(-62, 400, 38.0)">m</text></svg>